<svg version="1.1" id="Layer_1" xmlns="http://www.w3.org/2000/svg" xmlns:xlink="http://www.w3.org/1999/xlink" x="0px" y="0px"
	 width="100%" viewBox="0 0 265 224" enable-background="new 0 0 265 224" xml:space="preserve">
<path fill="#FFFFFE" opacity="1.000000" stroke="none" 
	d="
M182.000000,225.000000 
	C121.333336,225.000000 61.166676,225.000000 1.000008,225.000000 
	C1.000005,150.333344 1.000005,75.666679 1.000003,1.000018 
	C89.333321,1.000012 177.666641,1.000012 266.000000,1.000006 
	C266.000000,75.666649 266.000000,150.333298 266.000000,224.999969 
	C238.166672,225.000000 210.333328,225.000000 182.000000,225.000000 
M33.863178,97.094429 
	C33.863178,97.094429 33.755821,97.176163 33.945702,97.824181 
	C48.049397,113.209396 62.153091,128.594604 76.221321,144.876892 
	C74.634773,159.044189 72.978722,173.204208 71.492561,187.382019 
	C70.804848,193.942734 70.448387,200.538177 69.979355,207.796265 
	C68.689537,210.364578 70.243011,210.223312 72.726082,210.051804 
	C92.138100,201.315140 111.550125,192.578461 131.626633,184.138901 
	C133.292282,184.893478 134.954620,185.655441 136.624069,186.401505 
	C154.356537,194.326004 172.090118,202.247971 190.253723,210.701767 
	C191.108017,210.879822 191.962311,211.057877 193.130875,211.301437 
	C190.649780,188.573822 188.219498,166.311539 186.242371,143.525024 
	C200.383026,127.991325 214.523697,112.457626 228.987549,96.421913 
	C229.177734,95.587273 229.367920,94.752632 228.901413,93.389267 
	C222.566772,92.071762 216.242645,90.701050 209.895386,89.447456 
	C195.080002,86.521408 180.253525,83.651649 165.027679,80.186249 
	C155.715424,63.998428 146.432266,47.793709 137.050095,31.646513 
	C136.005981,29.849535 134.398468,28.379923 133.070175,26.127747 
	C132.654861,25.423040 132.239563,24.718332 131.941574,23.429808 
	C131.729858,22.896395 131.518143,22.362982 131.306442,21.829567 
	C130.792068,22.498770 130.277679,23.167971 129.836792,23.918104 
	C129.836792,23.918104 129.845337,23.809109 129.249954,24.153904 
	C120.075790,40.238712 110.940491,56.345924 101.692307,72.388054 
	C99.988564,75.343414 97.827629,78.035202 95.041367,80.838638 
	C91.148087,81.585632 87.243492,82.278419 83.363518,83.089127 
	C67.518211,86.399963 51.680424,89.746826 35.214714,93.262596 
	C33.964020,93.685089 32.713329,94.107582 30.127977,94.980942 
	C31.426310,95.547112 32.009399,95.801384 32.860909,96.620522 
	C33.210419,96.820740 33.559929,97.020958 33.863178,97.094429 
z"/>
<path fill="#FBC800" opacity="1.000000" stroke="none" 
	d="
M229.558105,93.917992 
	C229.367920,94.752632 229.177734,95.587273 228.468628,96.697113 
	C226.428589,97.598343 224.799347,98.043449 223.402771,98.877930 
	C206.008911,109.270935 188.619461,119.672150 171.306015,130.198166 
	C168.021866,132.194824 165.073563,134.743866 161.982849,137.418335 
	C162.068436,138.291534 162.039581,138.828003 162.229111,139.271042 
	C170.386673,158.339691 178.620682,177.375946 186.692474,196.480743 
	C188.410538,200.547195 189.546692,204.859497 190.607086,209.022797 
	C176.490036,197.139481 162.764175,185.236191 148.921265,173.470612 
	C143.052826,168.482834 136.938660,163.784195 130.596680,159.002457 
	C126.827194,161.884094 123.350945,164.663544 119.976135,167.561111 
	C110.813530,175.428055 101.638481,183.282104 92.575180,191.262573 
	C85.627785,197.379913 78.842911,203.681839 71.985748,209.901672 
	C70.243011,210.223312 68.689537,210.364578 70.274673,207.283173 
	C71.021385,206.093781 71.590263,205.468109 71.906761,204.733658 
	C77.671867,191.355194 83.491013,177.999023 89.118546,164.562653 
	C92.947144,155.421432 96.498375,146.164047 100.328339,136.738525 
	C96.804863,134.105835 93.201347,131.569092 89.434486,129.303970 
	C78.248665,122.577660 67.047218,115.874321 55.756027,109.327332 
	C48.510170,105.125954 41.095062,101.216476 33.755821,97.176163 
	C33.755821,97.176163 33.863178,97.094429 33.775433,96.860771 
	C33.322620,96.436630 32.957558,96.246140 32.592491,96.055649 
	C32.009399,95.801384 31.426310,95.547112 30.127977,94.980942 
	C32.713329,94.107582 33.964020,93.685089 35.664124,93.550659 
	C36.646030,94.183693 37.157013,94.788773 37.714230,94.834846 
	C46.953297,95.598984 56.203724,96.228241 65.440193,97.020668 
	C74.833885,97.826599 84.203369,98.944397 93.605942,99.606293 
	C99.763947,100.039787 105.961922,99.905518 112.393463,99.751801 
	C115.971031,85.859970 119.453026,72.277504 122.575409,58.612862 
	C125.215019,47.061039 127.437981,35.414005 129.845337,23.809109 
	C129.845337,23.809109 129.836792,23.918104 130.143250,23.924019 
	C130.907898,23.957832 131.366074,23.985729 131.824249,24.013626 
	C132.239563,24.718332 132.654861,25.423040 133.024475,26.880199 
	C133.028473,28.624371 132.928833,29.650749 133.149780,30.602722 
	C138.331161,52.927788 143.527298,75.249519 148.811783,97.550293 
	C149.095123,98.746025 150.175156,99.752968 151.332581,100.899765 
	C160.656296,100.272346 169.542511,99.709442 178.404861,98.888687 
	C195.463074,97.308899 212.507797,95.583183 229.558105,93.917992 
z"/>
<path fill="#DAB10A" opacity="1.000000" stroke="none" 
	d="
M190.950928,209.058533 
	C189.546692,204.859497 188.410538,200.547195 186.692474,196.480743 
	C178.620682,177.375946 170.386673,158.339691 162.229111,139.271042 
	C162.039581,138.828003 162.068436,138.291534 162.371307,137.413055 
	C170.427887,139.368088 178.108536,141.708679 185.789200,144.049271 
	C188.219498,166.311539 190.649780,188.573822 193.130875,211.301437 
	C191.962311,211.057877 191.108017,210.879822 190.304932,210.364395 
	C190.539261,210.005859 190.722412,209.984680 191.095627,209.898132 
	C191.364410,209.726440 191.526474,209.544876 191.508942,209.525467 
	C191.341965,209.340515 191.144562,209.183029 190.969681,209.025696 
	C190.983475,209.033707 190.950928,209.058533 190.950928,209.058533 
z"/>
<path fill="#B79304" opacity="1.000000" stroke="none" 
	d="
M190.905579,209.963501 
	C190.722412,209.984680 190.539261,210.005859 190.089752,210.098816 
	C172.090118,202.247971 154.356537,194.326004 136.624069,186.401505 
	C134.954620,185.655441 133.292282,184.893478 131.308014,183.532990 
	C130.971649,174.936081 130.953918,166.945114 130.936188,158.954132 
	C136.938660,163.784195 143.052826,168.482834 148.921265,173.470612 
	C162.764175,185.236191 176.490036,197.139481 190.607086,209.022797 
	C190.950928,209.058533 190.983475,209.033707 190.940536,209.261322 
	C190.897598,209.488953 190.905579,209.963501 190.905579,209.963501 
z"/>
<path fill="#B79304" opacity="1.000000" stroke="none" 
	d="
M186.015778,143.787140 
	C178.108536,141.708679 170.427887,139.368088 162.358765,137.032761 
	C165.073563,134.743866 168.021866,132.194824 171.306015,130.198166 
	C188.619461,119.672150 206.008911,109.270935 223.402771,98.877930 
	C224.799347,98.043449 226.428589,97.598343 228.307037,96.948120 
	C214.523697,112.457626 200.383026,127.991325 186.015778,143.787140 
z"/>
<path fill="#DAB10A" opacity="1.000000" stroke="none" 
	d="
M129.547638,23.981506 
	C127.437981,35.414005 125.215019,47.061039 122.575409,58.612862 
	C119.453026,72.277504 115.971031,85.859970 112.098511,99.571091 
	C109.532990,96.828201 107.691582,93.842003 105.451332,91.193130 
	C102.420433,87.609383 99.083397,84.284554 95.877708,80.848640 
	C97.827629,78.035202 99.988564,75.343414 101.692307,72.388054 
	C110.940491,56.345924 120.075790,40.238712 129.547638,23.981506 
z"/>
<path fill="#B79304" opacity="1.000000" stroke="none" 
	d="
M95.459534,80.843643 
	C99.083397,84.284554 102.420433,87.609383 105.451332,91.193130 
	C107.691582,93.842003 109.532990,96.828201 111.847046,99.844826 
	C105.961922,99.905518 99.763947,100.039787 93.605942,99.606293 
	C84.203369,98.944397 74.833885,97.826599 65.440193,97.020668 
	C56.203724,96.228241 46.953297,95.598984 37.714230,94.834846 
	C37.157013,94.788773 36.646030,94.183693 35.976700,93.459572 
	C51.680424,89.746826 67.518211,86.399963 83.363518,83.089127 
	C87.243492,82.278419 91.148087,81.585632 95.459534,80.843643 
z"/>
<path fill="#B79304" opacity="1.000000" stroke="none" 
	d="
M100.173630,136.958603 
	C96.498375,146.164047 92.947144,155.421432 89.118546,164.562653 
	C83.491013,177.999023 77.671867,191.355194 71.906761,204.733658 
	C71.590263,205.468109 71.021385,206.093781 70.255859,206.943985 
	C70.448387,200.538177 70.804848,193.942734 71.492561,187.382019 
	C72.978722,173.204208 74.634773,159.044189 76.614044,144.431763 
	C84.729057,141.643967 92.451347,139.301285 100.173630,136.958603 
z"/>
<path fill="#B79304" opacity="1.000000" stroke="none" 
	d="
M150.884308,100.847794 
	C150.175156,99.752968 149.095123,98.746025 148.811783,97.550293 
	C143.527298,75.249519 138.331161,52.927788 133.149780,30.602722 
	C132.928833,29.650749 133.028473,28.624371 133.015503,27.195572 
	C134.398468,28.379923 136.005981,29.849535 137.050095,31.646513 
	C146.432266,47.793709 155.715424,63.998428 164.888275,80.625565 
	C160.127335,87.659187 155.505829,94.253494 150.884308,100.847794 
z"/>
<path fill="#DAB109" opacity="1.000000" stroke="none" 
	d="
M130.596680,159.002457 
	C130.953918,166.945114 130.971649,174.936081 130.975769,183.384430 
	C111.550125,192.578461 92.138100,201.315140 72.355911,209.976746 
	C78.842911,203.681839 85.627785,197.379913 92.575180,191.262573 
	C101.638481,183.282104 110.813530,175.428055 119.976135,167.561111 
	C123.350945,164.663544 126.827194,161.884094 130.596680,159.002457 
z"/>
<path fill="#D9B109" opacity="1.000000" stroke="none" 
	d="
M151.332581,100.899765 
	C155.505829,94.253494 160.127335,87.659187 165.090195,80.911987 
	C180.253525,83.651649 195.080002,86.521408 209.895386,89.447456 
	C216.242645,90.701050 222.566772,92.071762 229.229767,93.653625 
	C212.507797,95.583183 195.463074,97.308899 178.404861,98.888687 
	C169.542511,99.709442 160.656296,100.272346 151.332581,100.899765 
z"/>
<path fill="#D9B109" opacity="1.000000" stroke="none" 
	d="
M100.328339,136.738525 
	C92.451347,139.301285 84.729057,141.643967 76.631775,143.983231 
	C62.153091,128.594604 48.049397,113.209396 33.850761,97.500168 
	C41.095062,101.216476 48.510170,105.125954 55.756027,109.327332 
	C67.047218,115.874321 78.248665,122.577660 89.434486,129.303970 
	C93.201347,131.569092 96.804863,134.105835 100.328339,136.738525 
z"/>
<path fill="#DAB10A" opacity="1.000000" stroke="none" 
	d="
M131.882904,23.721718 
	C131.366074,23.985729 130.907898,23.957832 130.106506,23.883553 
	C130.277679,23.167971 130.792068,22.498770 131.306442,21.829567 
	C131.518143,22.362982 131.729858,22.896395 131.882904,23.721718 
z"/>
<path fill="#D9B109" opacity="1.000000" stroke="none" 
	d="
M32.726700,96.338089 
	C32.957558,96.246140 33.322620,96.436630 33.798565,96.924149 
	C33.559929,97.020958 33.210419,96.820740 32.726700,96.338089 
z"/>
<path fill="#FBC800" opacity="1.000000" stroke="none" 
	d="
M191.095627,209.898132 
	C190.905579,209.963501 190.897598,209.488953 190.926743,209.253311 
	C191.144562,209.183029 191.341965,209.340515 191.508942,209.525467 
	C191.526474,209.544876 191.364410,209.726440 191.095627,209.898132 
z"/>
</svg>